<svg width="18" height="19" viewBox="0 0 18 19" fill="none" xmlns="http://www.w3.org/2000/svg">
<g clip-path="url(#clip0_94_33)">
<path d="M17.9121 6.85039L16.1332 1.21719C15.9047 0.489844 15.2613 0 14.5336 0H9.5625V7.125H17.9543C17.9402 7.03223 17.9402 6.93945 17.9121 6.85039ZM8.4375 0H3.46641C2.73867 0 2.09531 0.489844 1.8668 1.21719L0.0878906 6.85039C0.0597656 6.93945 0.0597656 7.03223 0.0457031 7.125H8.4375V0ZM0 8.3125V17.2188C0 18.2021 0.755859 19 1.6875 19H16.3125C17.2441 19 18 18.2021 18 17.2188V8.3125H0Z" fill="#454545"/>
</g>
<defs>
<clipPath id="clip0_94_33">
<rect width="18" height="19" fill="white"/>
</clipPath>
</defs>
</svg>
