<svg width="53" height="53" viewBox="0 0 53 53" fill="none" xmlns="http://www.w3.org/2000/svg">
<g clip-path="url(#clip0_211_8)">
<path d="M32.3373 26.5L52.1533 6.68319C52.6984 6.13767 52.9991 5.40989 53 4.63385C53 3.85738 52.6992 3.12874 52.1533 2.58409L50.4168 0.848016C49.8708 0.301211 49.1431 0.0017395 48.3662 0.0017395C47.5906 0.0017395 46.8628 0.301211 46.3168 0.848016L26.5009 20.6636L6.68403 0.848016C6.13895 0.301211 5.41074 0.0017395 4.63427 0.0017395C3.85866 0.0017395 3.13045 0.301211 2.58537 0.848016L0.848 2.58409C-0.282667 3.71476 -0.282667 5.55381 0.848 6.68319L20.6644 26.5L0.848 46.316C0.302488 46.8624 0.00215447 47.5901 0.00215447 48.3662C0.00215447 49.1422 0.302488 49.87 0.848 50.4159L2.58493 52.152C3.13002 52.6984 3.85866 52.9983 4.63384 52.9983C5.41031 52.9983 6.13852 52.6984 6.6836 52.152L26.5004 32.336L46.3164 52.152C46.8623 52.6984 47.5901 52.9983 48.3657 52.9983H48.3666C49.1426 52.9983 49.8704 52.6984 50.4164 52.152L52.1529 50.4159C52.6979 49.8704 52.9987 49.1422 52.9987 48.3662C52.9987 47.5901 52.6979 46.8624 52.1529 46.3164L32.3373 26.5Z" fill="#B5B5B5"/>
</g>
<defs>
<clipPath id="clip0_211_8">
<rect width="53" height="53" fill="white"/>
</clipPath>
</defs>
</svg>
