<svg width="133" height="83" viewBox="0 0 133 83" fill="none" xmlns="http://www.w3.org/2000/svg">
<path d="M2.91284 12.889V14.2013H3.34463C4.05696 14.2013 5.63288 14.4707 6.37638 14.7123C9.21649 15.6479 11.1734 17.7406 12.0878 20.8065C12.5992 22.5235 12.6489 23.1886 12.6489 28.5412V33.4882H29.0095L29.0303 23.816L29.0603 14.1526H35.9862C42.149 14.1526 43.0322 14.1725 44.0459 14.3266C45.6322 14.5671 46.7555 14.8952 47.9804 15.4738C48.9041 15.9083 49.1442 16.0813 49.9373 16.8428C50.9718 17.8459 51.5433 18.8014 51.885 20.1127C52.3965 22.0314 52.4265 24.6539 51.9647 26.3809C51.011 29.8813 48.2818 32.1381 43.5644 33.333C43.0726 33.4594 43.9558 33.4683 52.0651 33.4782L61.1084 33.4882L62.1025 33.0149C65.6861 31.2891 67.3717 28.4149 67.382 23.9889C67.4028 20.9894 66.5496 18.9942 64.4311 17.0456C61.5206 14.3743 56.592 12.7349 49.3358 12.031C45.6322 11.6741 45.0491 11.6641 23.8707 11.6264L2.91284 11.5876V12.889Z" fill="#00864E"/>
<path d="M71.267 12.8889V14.1725L72.0994 14.239C74.2675 14.413 75.9843 15.0404 77.4598 16.1976C78.6143 17.1032 79.8288 19.0419 80.3507 20.8065C80.8621 22.5035 80.9025 23.111 80.9025 28.4924V33.4882H97.2632V28.927C97.2632 26.3232 97.3128 23.9124 97.3728 23.3038C97.6742 20.382 98.9995 17.837 100.926 16.4481C102.412 15.3774 104.59 14.6835 106.477 14.6835H107.01L106.98 13.1594L106.948 11.6453L89.1123 11.6164L71.267 11.5976V12.8889Z" fill="#00864E"/>
<path d="M76.0247 38.444C74.4488 38.8109 73.5852 39.9493 73.696 41.4823C73.8057 42.9288 74.7397 43.8255 76.4161 44.1048C77.6202 44.2977 78.9444 43.9408 79.6672 43.2081C80.7016 42.1762 80.6912 40.2386 79.6475 39.2454C78.7944 38.444 77.3893 38.1259 76.0247 38.444ZM77.9215 39.0903C78.8048 39.3219 79.427 40.2098 79.4166 41.2406C79.4166 42.7259 78.3626 43.6326 76.7774 43.4885C75.5329 43.3821 74.7997 42.6395 74.6993 41.3958C74.6589 40.846 74.6889 40.662 74.9106 40.2186C75.1611 39.6689 75.5929 39.2831 76.1344 39.1002C76.5361 38.965 77.4494 38.9561 77.9215 39.0903Z" fill="#00864E"/>
<path d="M85.038 38.444C83.9839 38.6956 83.0499 39.4959 82.7994 40.3638C82.6389 40.9513 82.729 42.1285 82.9899 42.6107C83.6226 43.7867 84.9376 44.2888 86.9049 44.096C88.4808 43.9319 88.3295 44.096 88.3295 42.5907V41.2994H87.3263V43.411L86.9649 43.4786C86.3726 43.585 85.3082 43.4686 84.8568 43.2469C84.074 42.8612 83.7126 42.2349 83.7126 41.2406C83.7126 39.486 85.2389 38.5992 87.3563 39.129C87.6772 39.2066 87.9589 39.2743 87.9786 39.2743C87.989 39.2743 88.0594 39.139 88.1194 38.9849C88.2095 38.7145 88.1991 38.6757 87.9486 38.5892C87.1958 38.3099 85.9108 38.2423 85.038 38.444Z" fill="#00864E"/>
<path d="M95.7068 38.3964C94.6828 38.6668 94.2522 39.1102 94.2522 39.8617C94.2522 40.6432 94.7636 41.0577 96.2587 41.4823C96.6709 41.6075 97.1523 41.7815 97.3232 41.8868C98.0263 42.3014 97.9859 43.0829 97.2527 43.3622C96.7505 43.5551 95.6364 43.565 94.9945 43.3722C94.3526 43.1893 94.3826 43.1793 94.2014 43.5074C94.0513 43.7867 94.0605 43.7967 94.3826 43.8931C95.0141 44.086 96.1086 44.2013 96.7609 44.1436C97.5437 44.0672 98.3876 43.7191 98.6174 43.3821C99.0295 42.7836 98.8587 41.8968 98.2572 41.4823C98.0955 41.3759 97.4836 41.1154 96.8914 40.9136C95.5764 40.4503 95.3155 40.2763 95.2751 39.8429C95.2554 39.5824 95.3062 39.4571 95.506 39.2743C95.7276 39.0714 95.8881 39.0326 96.5104 39.0038C96.9618 38.975 97.434 39.0138 97.7446 39.1102L98.2468 39.2454L98.3969 38.9362L98.5573 38.6181L98.0863 38.5028C97.4836 38.3576 96.0982 38.29 95.7068 38.3964Z" fill="#00864E"/>
<path d="M113.624 38.454C112.078 38.8686 111.184 40.1034 111.355 41.5975C111.546 43.4109 113.132 44.3853 115.45 44.1148C115.912 44.0572 116.404 43.9707 116.554 43.912C116.806 43.8255 116.816 43.7967 116.725 43.5174C116.645 43.3145 116.564 43.2369 116.444 43.2657C115.732 43.4686 115.219 43.5362 114.577 43.4974C113.975 43.4586 113.733 43.3921 113.352 43.1693C111.907 42.3114 112.037 39.9681 113.564 39.2066C114.015 38.975 115.159 38.9362 115.882 39.1191C116.524 39.2831 116.615 39.2543 116.654 38.8885C116.684 38.6956 116.624 38.6369 116.284 38.5216C115.651 38.3188 114.266 38.2811 113.624 38.454Z" fill="#00864E"/>
<path d="M120.108 38.4152C119.205 38.6181 118.743 39.1191 118.743 39.8906C118.743 40.6144 119.295 41.0777 120.589 41.4435C121.553 41.704 122.015 41.9545 122.205 42.3014C122.738 43.2469 121.292 43.8156 119.515 43.3722C118.763 43.1893 118.783 43.1793 118.662 43.5074C118.562 43.7779 118.572 43.8067 118.873 43.8931C119.505 44.086 120.61 44.2013 121.252 44.1436C122.908 43.9796 123.681 43.1405 123.189 42.0609C123.028 41.704 122.888 41.5787 122.396 41.3282C122.075 41.1642 121.442 40.9225 120.991 40.7784C120.208 40.5279 119.797 40.2575 119.736 39.9493C119.667 39.6212 119.857 39.2931 120.188 39.139C120.61 38.9462 121.653 38.9362 122.286 39.1191L122.748 39.2543L122.868 38.965C123.018 38.6081 122.948 38.5505 122.105 38.4152C121.382 38.29 120.659 38.29 120.108 38.4152Z" fill="#00864E"/>
<path d="M6.00465 38.4739L5.62366 38.5116V41.2029C5.62366 42.8135 5.66291 43.912 5.7241 43.9507C5.93422 44.076 8.11279 44.1148 8.81473 44.0084C10.0997 43.8155 10.7324 43.3721 10.8224 42.5907C10.8929 41.9544 10.6516 41.5598 10.02 41.2705L9.52822 41.0477L9.90921 40.8072C10.8732 40.2098 10.5615 38.9461 9.35736 38.5892C8.97521 38.4739 6.66734 38.3964 6.00465 38.4739ZM9.00638 39.2454C9.73835 39.6112 9.6887 40.2862 8.90594 40.6243C8.58383 40.7684 8.25249 40.8172 7.56093 40.8172H6.62693V39.9681C6.62693 39.4959 6.65695 39.0814 6.70775 39.0426C6.85783 38.8885 8.59422 39.0426 9.00638 39.2454ZM9.30656 41.6263C10.1297 42.032 9.97964 43.044 9.06642 43.3045C8.46376 43.4686 7.57017 43.5462 7.07834 43.4786L6.62693 43.4109V41.367L7.81146 41.4146C8.63463 41.4435 9.08605 41.5111 9.30656 41.6263Z" fill="#00864E"/>
<path d="M15.1184 38.8298C14.5769 39.7276 12.5485 43.7778 12.5485 43.9607C12.5485 43.9796 12.7597 43.9995 13.031 43.9995H13.5021L13.8138 43.2957L14.1244 42.6007L15.7511 42.5719L17.3674 42.553L17.7184 43.2757L18.059 43.9995H18.5612C19.0426 43.9995 19.0634 43.9896 18.9826 43.7778C18.7216 43.1505 17.3674 40.4315 16.8352 39.486L16.2221 38.3964L15.7915 38.4252C15.4001 38.444 15.3297 38.4828 15.1184 38.8298ZM16.3838 40.4503C16.6839 41.0478 16.9656 41.6363 17.006 41.7527L17.0753 41.9744H15.7707C15.048 41.9744 14.4557 41.9456 14.4557 41.9068C14.4557 41.7815 15.691 39.3707 15.7615 39.3707C15.8007 39.3707 16.072 39.8617 16.3838 40.4503Z" fill="#00864E"/>
<path d="M21.1507 38.464C21.1103 38.5028 21.0803 39.7653 21.0803 41.2706V43.9995H22.0847V41.3958L22.4657 41.5787C23.058 41.878 23.8812 42.4943 24.7043 43.2857L25.4663 44.0084L26.0089 43.9796L26.5504 43.9508L25.5979 43.0352C24.7748 42.2349 23.8304 41.4823 23.2485 41.1542C23.0984 41.0777 23.2485 40.9225 24.2125 40.171C24.8348 39.6788 25.5772 39.0814 25.8485 38.8497L26.3507 38.4152L25.7884 38.4063C25.2366 38.4063 25.2054 38.4252 24.5335 38.9938C24.1525 39.3219 23.4598 39.8817 22.9876 40.2386L22.1344 40.9037L22.0847 39.6788L22.034 38.454L21.6322 38.4252C21.4013 38.4063 21.1912 38.4252 21.1507 38.464Z" fill="#00864E"/>
<path d="M28.0767 38.474C28.0362 38.5028 28.0062 38.6568 28.0062 38.8009V39.0714L29.14 39.1002L30.2645 39.129L30.2945 41.5599L30.3153 43.9995H31.2181V39.0814H33.5363L33.5063 38.7633L33.4763 38.454L30.8071 38.4252C29.3408 38.4152 28.1171 38.4352 28.0767 38.474Z" fill="#00864E"/>
<path d="M35.1827 38.6668C35.4944 39.139 36.5577 40.5567 37.0599 41.1741L37.5414 41.7815V43.9995H38.5458V41.7716L39.5791 40.4026C40.8444 38.7333 40.9541 38.5793 40.9541 38.4828C40.9541 38.4352 40.744 38.4063 40.4831 38.4063H40.0005L39.2177 39.5436C38.7859 40.161 38.3449 40.7784 38.2341 40.9037C37.9928 41.183 38.1036 41.2794 36.9191 39.5824L36.0867 38.4063H35.0118L35.1827 38.6668Z" fill="#00864E"/>
<path d="M43.2931 38.474L42.9618 38.5116V43.9707L43.5737 44.0372C45.1092 44.1924 46.6458 44.0372 47.3178 43.6814C47.91 43.3622 48.1306 43.0152 48.1306 42.4078C48.1306 41.8004 47.88 41.4823 47.2277 41.2029L46.826 41.0389L47.1469 40.8848C47.6087 40.6532 47.7796 40.3639 47.7796 39.8141C47.7796 39.4084 47.7392 39.3031 47.4482 39.0426C47.2577 38.8785 46.9368 38.6757 46.7151 38.6081C46.3237 38.4828 43.9258 38.3864 43.2931 38.474ZM46.2545 39.2155C46.976 39.5724 47.0268 40.1998 46.3641 40.5756C46.1032 40.7208 45.7927 40.7784 44.9995 40.7973L43.9651 40.836V38.9561L44.9591 39.0138C45.571 39.0426 46.0628 39.1191 46.2545 39.2155ZM46.184 41.5011C46.8156 41.6363 47.1769 41.9456 47.1769 42.3602C47.1769 42.8035 47.0072 43.0352 46.5454 43.2281C46.0628 43.4298 44.7478 43.565 44.2768 43.4686L43.9651 43.401V41.3958H44.8183C45.2801 41.3958 45.8931 41.4435 46.184 41.5011Z" fill="#00864E"/>
<path d="M52.6273 38.5216C52.296 38.9262 50.1682 43.1028 49.9373 43.7867C49.8773 43.9796 49.9073 43.9995 50.3391 43.9995H50.8009L51.1415 43.2757L51.4936 42.553L53.1191 42.5719L54.7459 42.6007L55.046 43.2957L55.3474 43.9995H56.4014L55.95 43.0064C55.6983 42.4654 55.0564 41.2118 54.5346 40.2098L53.5809 38.4063H53.1492C52.9183 38.4063 52.6781 38.464 52.6273 38.5216ZM53.7818 40.6144C54.1236 41.2994 54.4041 41.8868 54.4041 41.9157C54.4041 41.9456 53.8118 41.9744 53.0891 41.9744H51.7845L51.8549 41.7527C51.9854 41.3371 52.9991 39.3707 53.0891 39.3707C53.1295 39.3707 53.4505 39.9293 53.7818 40.6144Z" fill="#00864E"/>
<path d="M56.8125 38.454C56.8125 38.5216 58.2083 40.4315 58.7902 41.1442L59.3224 41.8004V43.9995H60.2252V41.858L61.1592 40.6332C62.1233 39.3895 62.7352 38.5405 62.7352 38.474C62.7352 38.454 62.5146 38.4352 62.2433 38.4152L61.7515 38.3964L61.3301 39.0526C60.7679 39.9005 59.8951 41.0965 59.8142 41.0965C59.7334 41.1065 58.5397 39.4671 58.1783 38.8597C57.8966 38.4063 57.8966 38.4063 57.3551 38.4063C57.0538 38.4063 56.8125 38.4252 56.8125 38.454Z" fill="#00864E"/>
<path d="M68.1244 38.474C68.0852 38.5028 68.0552 39.7653 68.0552 41.2706V43.9995H72.3707V43.4209H69.0584V38.4063H68.6267C68.3865 38.4063 68.1556 38.4352 68.1244 38.474Z" fill="#00864E"/>
<path d="M90.9099 38.474C90.8695 38.5028 90.8395 39.7653 90.8395 41.2706V43.9995H91.8428V38.4063H91.411C91.1708 38.4063 90.9399 38.4352 90.9099 38.474Z" fill="#00864E"/>
<path d="M100.375 38.7433V39.0814H102.583V43.9995H103.586V39.0814H105.795V38.4063H100.375V38.7433Z" fill="#00864E"/>
<path d="M107.902 41.2029V43.9995H108.806V38.4063H107.902V41.2029Z" fill="#00864E"/>
<path d="M12.6489 55.1571C12.6489 62.833 12.6292 63.1412 12.1478 64.8293C12.0266 65.2239 11.7356 65.9577 11.4955 66.4587C10.0096 69.4671 7.37966 71.1552 3.83645 71.3581L2.91284 71.4157V73.9906H21.7626C39.4786 73.9906 43.3832 73.9418 47.1769 73.7013C62.8056 72.6982 69.339 68.9372 71.207 59.8624C71.8292 56.8441 71.8985 52.3893 71.3674 49.2258C71.2566 48.5796 71.1665 48.021 71.1665 48.001C71.1665 47.9722 67.3024 47.9533 62.5747 47.9533H53.9828L54.0428 48.175C54.5947 50.3054 54.7055 55.5716 54.2541 58.5035C53.4909 63.4593 51.2419 66.6228 47.1377 68.5027C45.9231 69.0625 44.7086 69.4482 43.1627 69.7863C40.7128 70.3061 39.9912 70.3549 34.4195 70.3937L29.2404 70.4414L29.1803 69.5446C29.1399 69.0525 29.1099 64.0002 29.1099 58.3006V47.9533H12.6489V55.1571Z" fill="#00864E"/>
<path d="M80.9025 55.0119C80.9025 60.8079 80.8725 62.2544 80.7513 63.0448C79.9593 68.0593 76.8871 71.0488 72.1998 71.3581L71.267 71.4157V73.9906L98.8483 73.9806C114.015 73.9706 126.913 73.9418 127.525 73.903L128.629 73.8454L129.603 66.9509C130.134 63.1611 130.577 59.9589 130.587 59.8336C130.587 59.6219 130.556 59.6119 129.974 59.6407L129.362 59.6696L128.98 60.972C128.077 64.029 126.803 66.3911 125.146 68.0693C124.213 69.0148 123.33 69.6599 122.306 70.1421C120.82 70.8371 121.172 70.8083 112.67 70.8083C105.534 70.8083 104.981 70.7883 104.138 70.6154C102.984 70.3837 102.181 70.0756 101.318 69.5347C99.7419 68.5515 98.5678 66.9986 97.9258 65.0411C97.3336 63.2376 97.3336 63.2864 97.2932 55.3012L97.2528 47.9533H80.9025V55.0119Z" fill="#00864E"/>
</svg>
